# xmcd
#
# Track frame offsets:
#	150
#	17405
#	45020
#	76975
#
# Disc length: 1428 seconds
#
# Revision: 3
# Processed by: cddbd v1.5.1PL0 Copyright (c) Steve Scherf et al.
# Submitted via: EasyCDDAExtractor 8.1.2.3
#
DISCID=18059204
DTITLE=Zhi-Vago - Teardrops From Heaven (Maxi-CD)
DYEAR=1997
DGENRE=Eurodance
TTITLE0=Teardrops From Heaven (FM Video Mix)
TTITLE1=Teardrops From Heaven (Rainbow Mix)
TTITLE2=Teardrops From Heaven (Club Mix)
TTITLE3=Teardrops From Heaven (Tears Of Allah Mix)
EXTD=ID3G: 18
EXTT0=
EXTT1=
EXTT2=
EXTT3=
PLAYORDER=
